# xmcd
# 
# Track frame offsets:
#     150
#     15710
#     27501
#     40374
#     52222
#     66213
#     78993
#     98425
#     111938
#     126965
#     140726
#     152528
#     170217
# 
# Disc length: 2519
# 
# Revision: 17
# Processed by: cddbd v1.5.2PL0 Copyright (c) Steve Scherf et al.
# Submitted via: fre:ac v1.0.31
# 
DISCID=b609d50d
DTITLE=Jack White - Blunderbuss
DYEAR=2012
DGENRE=Roots Rock
TTITLE0=Missing Pieces
TTITLE1=Sixteen Saltines
TTITLE2=Freedom at 21
TTITLE3=Love Interruption
TTITLE4=Blunderbuss
TTITLE5=Hypocritical Kiss
TTITLE6=Weep Themselves to Sleep
TTITLE7=I'm Shakin'
TTITLE8=Trash Tongue Talker
TTITLE9=Hip (Eponymous) Poor Boy
TTITLE10=I Guess I Should Go to Sleep
TTITLE11=On and On and On
TTITLE12=Take Me with You When You Go
EXTD=YEAR: 2012
EXTT0=
EXTT1=
EXTT2=
EXTT3=
EXTT4=
EXTT5=
EXTT6=
EXTT7=
EXTT8=
EXTT9=
EXTT10=
EXTT11=
EXTT12=
PLAYORDER=
